<svg width="12" height="13" viewBox="0 0 12 13" fill="none" xmlns="http://www.w3.org/2000/svg">
<path d="M6 0.5C2.68548 0.5 0 3.18548 0 6.5C0 9.81452 2.68548 12.5 6 12.5C9.31452 12.5 12 9.81452 12 6.5C12 3.18548 9.31452 0.5 6 0.5ZM9.48387 7.17742C9.48387 7.3371 9.35323 7.46774 9.19355 7.46774H6.96774V9.69355C6.96774 9.85323 6.8371 9.98387 6.67742 9.98387H5.32258C5.1629 9.98387 5.03226 9.85323 5.03226 9.69355V7.46774H2.80645C2.64677 7.46774 2.51613 7.3371 2.51613 7.17742V5.82258C2.51613 5.6629 2.64677 5.53226 2.80645 5.53226H5.03226V3.30645C5.03226 3.14677 5.1629 3.01613 5.32258 3.01613H6.67742C6.8371 3.01613 6.96774 3.14677 6.96774 3.30645V5.53226H9.19355C9.35323 5.53226 9.48387 5.6629 9.48387 5.82258V7.17742Z" fill="#3D70F6"/>
</svg>
