<svg width="9" height="11" viewBox="0 0 9 11" fill="none" xmlns="http://www.w3.org/2000/svg">
<path d="M5.03174 3.20801V0.46875H0.667725C0.377518 0.46875 0.144043 0.684265 0.144043 0.952148V10.2979C0.144043 10.5657 0.377518 10.7812 0.667725 10.7812H7.99927C8.28947 10.7812 8.52295 10.5657 8.52295 10.2979V3.69141H5.55542C5.2674 3.69141 5.03174 3.47388 5.03174 3.20801ZM6.34312 5.35309L5.03174 7.23633L6.34312 9.11957C6.45441 9.2807 6.33003 9.49219 6.12274 9.49219H5.36122C5.26521 9.49219 5.17575 9.44385 5.12993 9.3653C4.70226 8.63617 4.3335 7.98157 4.3335 7.98157C4.19385 8.27966 4.1153 8.3844 3.53488 9.36731C3.48906 9.44586 3.40178 9.4942 3.30577 9.4942H2.54425C2.33696 9.4942 2.21259 9.28271 2.32387 9.12158L3.63962 7.23834L2.32387 5.3551C2.2104 5.19397 2.33696 4.98248 2.54425 4.98248H3.30359C3.3996 4.98248 3.48906 5.03082 3.53488 5.10938C4.10439 6.09229 3.97128 5.78613 4.3335 6.48907C4.3335 6.48907 4.4666 6.25342 5.13211 5.10938C5.17793 5.03082 5.2674 4.98248 5.3634 4.98248H6.12274C6.33003 4.98047 6.45441 5.19196 6.34312 5.35309ZM8.52295 2.92401V3.04688H5.72998V0.46875H5.86308C6.00273 0.46875 6.13583 0.519104 6.23402 0.609741L8.37021 2.58362C8.4684 2.67426 8.52295 2.79712 8.52295 2.92401Z" fill="#107C41"/>
</svg>
