<svg width="10" height="10" viewBox="0 0 10 10" fill="none" xmlns="http://www.w3.org/2000/svg">
<rect x="1" y="1" width="8" height="8" rx="4" fill="#DB655F"/>
<rect x="1" y="1" width="8" height="8" rx="4" stroke="#DB655F" stroke-width="2"/>
<path d="M5.94205 7.07233C5.94205 7.59174 5.51948 8.01431 5.00008 8.01431C4.48067 8.01431 4.05811 7.59174 4.05811 7.07233C4.05811 6.55293 4.48067 6.13036 5.00008 6.13036C5.51948 6.13036 5.94205 6.55293 5.94205 7.07233ZM4.16714 2.2824L4.32727 5.4851C4.3348 5.6355 4.45893 5.75357 4.60951 5.75357H5.39064C5.54123 5.75357 5.66536 5.6355 5.67288 5.4851L5.83302 2.2824C5.84108 2.12098 5.7124 1.98569 5.55078 1.98569H4.44938C4.28776 1.98569 4.15907 2.12098 4.16714 2.2824Z" fill="white"/>
</svg>
