<svg width="12" height="11" viewBox="0 0 12 11" fill="none" xmlns="http://www.w3.org/2000/svg">
<path d="M11.3762 9.13914C11.7287 9.75013 11.2862 10.5139 10.5822 10.5139H1.4177C0.712309 10.5139 0.271889 9.74895 0.623698 9.13914L5.206 1.19416C5.55867 0.582879 6.44197 0.583986 6.79401 1.19416L11.3762 9.13914ZM6 7.49653C5.51484 7.49653 5.12153 7.88984 5.12153 8.375C5.12153 8.86017 5.51484 9.25347 6 9.25347C6.48517 9.25347 6.87848 8.86017 6.87848 8.375C6.87848 7.88984 6.48517 7.49653 6 7.49653ZM5.16597 4.33888L5.30763 6.9361C5.31426 7.05764 5.41475 7.15278 5.53646 7.15278H6.46355C6.58526 7.15278 6.68575 7.05764 6.69237 6.9361L6.83404 4.33888C6.8412 4.20761 6.73668 4.09722 6.60521 4.09722H5.39477C5.26331 4.09722 5.15881 4.20761 5.16597 4.33888Z" fill="#FFB71D"/>
</svg>
