<svg width="9" height="15" viewBox="0 0 9 15" fill="none" xmlns="http://www.w3.org/2000/svg">
<path d="M5.21767 0.59863L8.66412 4.04508C8.90233 4.28329 8.90233 4.66848 8.66412 4.90415L8.0914 5.47687C7.85319 5.71508 7.468 5.71508 7.23232 5.47687L4.78687 3.03648L2.34394 5.4794C2.10573 5.71761 1.72054 5.71761 1.48487 5.4794L0.909615 4.90669C0.671405 4.66848 0.671405 4.28329 0.909615 4.04761L4.35606 0.601164C4.59427 0.36042 4.97946 0.36042 5.21767 0.59863Z" fill="#C7C2BD"/>
<path d="M4.35606 14.4852L0.909615 11.0388C0.671404 10.8006 0.671404 10.4154 0.909615 10.1797L1.48233 9.607C1.72054 9.36879 2.10573 9.36879 2.34141 9.607L4.78433 12.0499L7.22725 9.607C7.46546 9.36879 7.85065 9.36879 8.08633 9.607L8.65905 10.1797C8.89726 10.4179 8.89726 10.8031 8.65905 11.0388L5.2126 14.4852C4.97946 14.7235 4.59427 14.7235 4.35606 14.4852Z" fill="#C7C2BD"/>
</svg>
